# xmcd
# 
# Track frame offsets:
#     183
#     21683
#     43448
#     65758
#     88670
#     115318
#     137903
#     164670
#     194008
# 
# Disc length: 2895
# 
# Revision: 1
# Processed by: cddbd v1.5.2PL0 Copyright (c) Steve Scherf et al.
# Submitted via: BonkEnc v1.0.8
# 
DISCID=950b4d09
DTITLE=Winbush, Angela  - The Real Thing
DYEAR=1989
DGENRE=R&B
TTITLE0=It's The Real Thing
TTITLE1=No More Tears
TTITLE2=Thank You Love
TTITLE3=Lay Your Troubles Down
TTITLE4=Precious
TTITLE5=Please Bring Your Love Back
TTITLE6=Menage A` Trois
TTITLE7=I've Learned To Respect (The Power Of Love)
TTITLE8=I'll Never Be The Same
EXTD=YEAR: 1989
EXTT0=
EXTT1=
EXTT2=
EXTT3=
EXTT4=
EXTT5=
EXTT6=
EXTT7=
EXTT8=
PLAYORDER=
